<?xml version="1.0" encoding="UTF-8" standalone="no"?>
<!-- Created with Inkscape (http://www.inkscape.org/) -->

<svg
   xmlns:osb="http://www.openswatchbook.org/uri/2009/osb"
   xmlns:dc="http://purl.org/dc/elements/1.1/"
   xmlns:cc="http://creativecommons.org/ns#"
   xmlns:rdf="http://www.w3.org/1999/02/22-rdf-syntax-ns#"
   xmlns:svg="http://www.w3.org/2000/svg"
   xmlns="http://www.w3.org/2000/svg"
   xmlns:sodipodi="http://sodipodi.sourceforge.net/DTD/sodipodi-0.dtd"
   xmlns:inkscape="http://www.inkscape.org/namespaces/inkscape"
   width="702.05603"
   height="710.13721"
   id="svg2"
   version="1.1"
   inkscape:version="0.48.2 r9819"
   sodipodi:docname="bnc-grounding.svg"
   inkscape:export-filename="/home/ben/lori/writing/timetag/construction/bnc-grounding.png"
   inkscape:export-xdpi="51.279999"
   inkscape:export-ydpi="51.279999">
  <defs
     id="defs4">
    <linearGradient
       id="linearGradient3803"
       osb:paint="solid">
      <stop
         style="stop-color:#000000;stop-opacity:1;"
         offset="0"
         id="stop3805" />
    </linearGradient>
  </defs>
  <sodipodi:namedview
     id="base"
     pagecolor="#ffffff"
     bordercolor="#666666"
     borderopacity="1.0"
     inkscape:pageopacity="0.0"
     inkscape:pageshadow="2"
     inkscape:zoom="0.98994949"
     inkscape:cx="381.86921"
     inkscape:cy="72.068927"
     inkscape:document-units="px"
     inkscape:current-layer="g4090"
     showgrid="false"
     fit-margin-top="0"
     fit-margin-left="0"
     fit-margin-right="0"
     fit-margin-bottom="0"
     inkscape:window-width="1920"
     inkscape:window-height="1176"
     inkscape:window-x="0"
     inkscape:window-y="24"
     inkscape:window-maximized="1" />
  <metadata
     id="metadata7">
    <rdf:RDF>
      <cc:Work
         rdf:about="">
        <dc:format>image/svg+xml</dc:format>
        <dc:type
           rdf:resource="http://purl.org/dc/dcmitype/StillImage" />
        <dc:title></dc:title>
      </cc:Work>
    </rdf:RDF>
  </metadata>
  <g
     inkscape:label="Layer 1"
     inkscape:groupmode="layer"
     id="layer1"
     transform="translate(-13.131983,-31.09796)">
    <rect
       style="fill:#fac9c5;fill-opacity:1;stroke:none"
       id="rect4237"
       width="702.05603"
       height="238.396"
       x="13.131983"
       y="502.83917" />
    <rect
       y="269.45334"
       x="13.131983"
       height="238.396"
       width="702.05603"
       id="rect4235"
       style="fill:#c5dcfa;fill-opacity:1;stroke:none" />
    <rect
       style="fill:#cafac5;fill-opacity:1;stroke:none"
       id="rect4233"
       width="702.05603"
       height="238.396"
       x="13.131983"
       y="31.09796" />
    <g
       id="g4153"
       transform="translate(0,62)">
      <path
         inkscape:connector-curvature="0"
         id="path3945"
         d="m 406.0648,291.21224 c 6.31345,-3.03046 15.40482,1.26269 15.40482,1.26269"
         style="fill:none;stroke:#000000;stroke-width:2;stroke-linecap:butt;stroke-linejoin:miter;stroke-opacity:1;stroke-miterlimit:4;stroke-dasharray:none" />
      <path
         style="fill:none;stroke:#000000;stroke-width:2;stroke-linecap:butt;stroke-linejoin:miter;stroke-opacity:1;stroke-miterlimit:4;stroke-dasharray:none"
         d="m 605.54531,389.88418 c -0.25254,-7.44987 10.26894,-7.0006 10.26894,-7.0006"
         id="path3947"
         inkscape:connector-curvature="0"
         sodipodi:nodetypes="cc" />
      <path
         style="fill:none;stroke:#000000;stroke-width:2;stroke-linecap:round;stroke-miterlimit:4;stroke-opacity:1;stroke-dasharray:8, 4;stroke-dashoffset:0"
         d="m 165.90102,265.45335 239.91124,0 0,26.26397 -239.91124,0"
         id="path3811"
         inkscape:connector-curvature="0"
         sodipodi:nodetypes="cccc" />
      <path
         style="fill:#990000;stroke:#990000;stroke-width:2;stroke-linecap:butt;stroke-linejoin:miter;stroke-miterlimit:4;stroke-opacity:1;stroke-dasharray:none"
         d="m 164.3858,278.58534 254.55844,0"
         id="path3813"
         inkscape:connector-curvature="0" />
      <path
         sodipodi:type="arc"
         style="fill:#990000;fill-opacity:1;stroke:none"
         id="path3815"
         sodipodi:cx="297.14285"
         sodipodi:cy="102.71932"
         sodipodi:rx="5.1785712"
         sodipodi:ry="5.1785712"
         d="m 302.32142,102.71932 c 0,2.86005 -2.31852,5.17857 -5.17857,5.17857 -2.86004,0 -5.17857,-2.31852 -5.17857,-5.17857 0,-2.860044 2.31853,-5.178569 5.17857,-5.178569 2.86005,0 5.17857,2.318525 5.17857,5.178569 z"
         transform="matrix(0.68965516,0,0,0.68965516,216.60961,207.74442)" />
      <path
         transform="matrix(0.68965516,0,0,0.68965516,216.60961,221.12895)"
         d="m 302.32142,102.71932 c 0,2.86005 -2.31852,5.17857 -5.17857,5.17857 -2.86004,0 -5.17857,-2.31852 -5.17857,-5.17857 0,-2.860044 2.31853,-5.178569 5.17857,-5.178569 2.86005,0 5.17857,2.318525 5.17857,5.178569 z"
         sodipodi:ry="5.1785712"
         sodipodi:rx="5.1785712"
         sodipodi:cy="102.71932"
         sodipodi:cx="297.14285"
         id="path3817"
         style="fill:#000000;fill-opacity:1;stroke:none"
         sodipodi:type="arc" />
      <g
         id="g3819"
         transform="translate(307.04604,266.63927)">
        <g
           id="g3821"
           transform="translate(0.25253813,4.7982246)">
          <path
             style="fill:none;stroke:#000000;stroke-width:1px;stroke-linecap:butt;stroke-linejoin:miter;stroke-opacity:1"
             d="m 286.88332,137.92159 24.24366,0"
             id="path3823"
             inkscape:connector-curvature="0" />
          <path
             style="fill:none;stroke:#000000;stroke-width:1px;stroke-linecap:butt;stroke-linejoin:miter;stroke-opacity:1"
             d="m 290.54513,142.4571 16.92005,0"
             id="path3825"
             inkscape:connector-curvature="0" />
          <path
             sodipodi:nodetypes="cc"
             style="fill:none;stroke:#000000;stroke-width:1px;stroke-linecap:butt;stroke-linejoin:miter;stroke-opacity:1"
             d="m 293.95439,146.99265 10.10152,0"
             id="path3827"
             inkscape:connector-curvature="0" />
        </g>
        <path
           style="fill:none;stroke:#000000;stroke-width:2;stroke-linecap:butt;stroke-linejoin:miter;stroke-opacity:1;stroke-miterlimit:4;stroke-dasharray:none"
           d="m 295.9747,137.16398 0,-20.20306"
           id="path3829"
           inkscape:connector-curvature="0"
           transform="translate(2.5253814,6.0609153)" />
      </g>
      <path
         sodipodi:nodetypes="ccccc"
         inkscape:connector-curvature="0"
         id="path3833"
         d="m 641.02679,382.12597 c 1.34687,-118.69292 1.07698,-118.18785 -204.15235,-116.67262 l 0,26.26397 c 179.31919,0.50508 177.28178,-11.11168 178.79701,90.91373 z"
         style="fill:none;stroke:#000000;stroke-width:2;stroke-linecap:round;stroke-miterlimit:4;stroke-opacity:1;stroke-dasharray:8, 4;stroke-dashoffset:0" />
      <path
         style="fill:none;stroke:#990000;stroke-width:2;stroke-linecap:butt;stroke-linejoin:miter;stroke-miterlimit:4;stroke-opacity:1;stroke-dasharray:none"
         d="m 422.07622,279.09041 c 206.5506,0 205.46452,-21.31657 205.46452,115.54064"
         id="path3835"
         inkscape:connector-curvature="0"
         sodipodi:nodetypes="cc" />
      <path
         style="fill:none;stroke:#000000;stroke-width:2;stroke-linecap:butt;stroke-linejoin:miter;stroke-opacity:1;stroke-miterlimit:4;stroke-dasharray:none"
         d="m 422.98485,291.71732 c 11.29253,3.7058 9.744,-0.54083 15.15229,0"
         id="path3837"
         inkscape:connector-curvature="0"
         sodipodi:nodetypes="cc" />
      <text
         xml:space="preserve"
         style="font-size:20px;font-style:normal;font-weight:normal;line-height:125%;letter-spacing:0px;word-spacing:0px;fill:#000000;fill-opacity:1;stroke:none;font-family:Sans"
         x="627.85712"
         y="419.50504"
         id="text3883"
         sodipodi:linespacing="125%"><tspan
           sodipodi:role="line"
           id="tspan3885"
           x="627.85712"
           y="419.50504">Board</tspan></text>
      <text
         xml:space="preserve"
         style="font-size:40px;font-style:normal;font-weight:normal;line-height:125%;letter-spacing:0px;word-spacing:0px;fill:#000000;fill-opacity:1;stroke:none;font-family:Sans"
         x="42.142857"
         y="285.21933"
         id="text3887"
         sodipodi:linespacing="125%"><tspan
           sodipodi:role="line"
           x="42.142857"
           y="285.21933"
           id="tspan3889"
           style="font-size:20px">To Detector</tspan></text>
      <path
         sodipodi:type="arc"
         style="fill:#990000;fill-opacity:1;stroke:none"
         id="path3768-0"
         sodipodi:cx="297.14285"
         sodipodi:cy="102.71932"
         sodipodi:rx="5.1785712"
         sodipodi:ry="5.1785712"
         d="m 302.32142,102.71932 c 0,2.86005 -2.31852,5.17857 -5.17857,5.17857 -2.86004,0 -5.17857,-2.31852 -5.17857,-5.17857 0,-2.860044 2.31853,-5.178569 5.17857,-5.178569 2.86005,0 5.17857,2.318525 5.17857,5.178569 z"
         transform="matrix(0.68965516,0,0,0.68965516,422.93104,322.94984)" />
      <path
         transform="matrix(0.68965516,0,0,0.68965516,400.52033,322.94984)"
         d="m 302.32142,102.71932 c 0,2.86005 -2.31852,5.17857 -5.17857,5.17857 -2.86004,0 -5.17857,-2.31852 -5.17857,-5.17857 0,-2.860044 2.31853,-5.178569 5.17857,-5.178569 2.86005,0 5.17857,2.318525 5.17857,5.178569 z"
         sodipodi:ry="5.1785712"
         sodipodi:rx="5.1785712"
         sodipodi:cy="102.71932"
         sodipodi:cx="297.14285"
         id="path3961-3"
         style="fill:#000000;fill-opacity:1;stroke:none"
         sodipodi:type="arc" />
    </g>
    <g
       id="g4068">
      <path
         sodipodi:nodetypes="cccc"
         inkscape:connector-curvature="0"
         id="rect3763"
         d="m 165.90102,89.181731 239.91124,0 0,26.263969 -239.91124,0"
         style="fill:none;stroke:#000000;stroke-width:2;stroke-linecap:round;stroke-miterlimit:4;stroke-opacity:1;stroke-dasharray:8, 4;stroke-dashoffset:0" />
      <path
         inkscape:connector-curvature="0"
         id="path3766"
         d="m 164.3858,102.31372 254.55844,0"
         style="fill:#990000;stroke:#990000;stroke-width:2;stroke-linecap:butt;stroke-linejoin:miter;stroke-miterlimit:4;stroke-opacity:1;stroke-dasharray:none" />
      <path
         transform="matrix(0.68965516,0,0,0.68965516,216.60961,31.472805)"
         d="m 302.32142,102.71932 c 0,2.86005 -2.31852,5.17857 -5.17857,5.17857 -2.86004,0 -5.17857,-2.31852 -5.17857,-5.17857 0,-2.860044 2.31853,-5.178569 5.17857,-5.178569 2.86005,0 5.17857,2.318525 5.17857,5.178569 z"
         sodipodi:ry="5.1785712"
         sodipodi:rx="5.1785712"
         sodipodi:cy="102.71932"
         sodipodi:cx="297.14285"
         id="path3768"
         style="fill:#990000;fill-opacity:1;stroke:none"
         sodipodi:type="arc" />
      <path
         sodipodi:type="arc"
         style="fill:#000000;fill-opacity:1;stroke:none"
         id="path3770"
         sodipodi:cx="297.14285"
         sodipodi:cy="102.71932"
         sodipodi:rx="5.1785712"
         sodipodi:ry="5.1785712"
         d="m 302.32142,102.71932 c 0,2.86005 -2.31852,5.17857 -5.17857,5.17857 -2.86004,0 -5.17857,-2.31852 -5.17857,-5.17857 0,-2.860044 2.31853,-5.178569 5.17857,-5.178569 2.86005,0 5.17857,2.318525 5.17857,5.178569 z"
         transform="matrix(0.68965516,0,0,0.68965516,216.60961,44.857326)" />
      <g
         id="g3938"
         transform="translate(311.35714,102.5)">
        <g
           transform="translate(-2.2728433,-1.2626907)"
           id="g3785">
          <path
             inkscape:connector-curvature="0"
             id="path3772"
             d="m 286.88332,137.92159 24.24366,0"
             style="fill:none;stroke:#000000;stroke-width:1px;stroke-linecap:butt;stroke-linejoin:miter;stroke-opacity:1" />
          <path
             inkscape:connector-curvature="0"
             id="path3774"
             d="m 290.54513,142.4571 16.92005,0"
             style="fill:none;stroke:#000000;stroke-width:1px;stroke-linecap:butt;stroke-linejoin:miter;stroke-opacity:1" />
          <path
             inkscape:connector-curvature="0"
             id="path3776"
             d="m 293.95439,146.99265 10.10152,0"
             style="fill:none;stroke:#000000;stroke-width:1px;stroke-linecap:butt;stroke-linejoin:miter;stroke-opacity:1"
             sodipodi:nodetypes="cc" />
        </g>
        <path
           inkscape:connector-curvature="0"
           id="path3791"
           d="m 295.9747,137.16398 0,-20.20306"
           style="fill:none;stroke:#000000;stroke-width:2;stroke-linecap:butt;stroke-linejoin:miter;stroke-opacity:1;stroke-miterlimit:4;stroke-dasharray:none" />
      </g>
      <path
         style="fill:none;stroke:#000000;stroke-width:2;stroke-linecap:butt;stroke-linejoin:miter;stroke-opacity:1;stroke-miterlimit:4;stroke-dasharray:none"
         d="m 405.55972,115.95077 c 6.31345,-3.03046 15.40482,1.26269 15.40482,1.26269"
         id="path3793"
         inkscape:connector-curvature="0" />
      <path
         style="fill:none;stroke:#000000;stroke-width:2;stroke-linecap:round;stroke-miterlimit:4;stroke-opacity:1;stroke-dasharray:8, 4;stroke-dashoffset:0"
         d="M 641.02679,205.85435 C 642.37366,87.161426 642.10377,87.666502 436.87444,89.181731 l 0,26.263969 c 179.31919,0.50508 177.28178,-11.11168 178.79701,90.91373 z"
         id="path3795"
         inkscape:connector-curvature="0"
         sodipodi:nodetypes="ccccc" />
      <path
         sodipodi:nodetypes="cc"
         inkscape:connector-curvature="0"
         id="path3801"
         d="m 422.07622,102.81879 c 206.5506,0 205.46452,-21.316567 205.46452,115.54064"
         style="fill:none;stroke:#990000;stroke-width:2;stroke-linecap:butt;stroke-linejoin:miter;stroke-miterlimit:4;stroke-opacity:1;stroke-dasharray:none" />
      <text
         sodipodi:linespacing="125%"
         id="text3871"
         y="107.36218"
         x="40"
         style="font-size:40px;font-style:normal;font-weight:normal;line-height:125%;letter-spacing:0px;word-spacing:0px;fill:#000000;fill-opacity:1;stroke:none;font-family:Sans"
         xml:space="preserve"><tspan
           style="font-size:20px"
           id="tspan3875"
           y="107.36218"
           x="40"
           sodipodi:role="line">To Detector</tspan></text>
      <text
         sodipodi:linespacing="125%"
         id="text3879"
         y="236.6479"
         x="632.14288"
         style="font-size:20px;font-style:normal;font-weight:normal;line-height:125%;letter-spacing:0px;word-spacing:0px;fill:#000000;fill-opacity:1;stroke:none;font-family:Sans"
         xml:space="preserve"><tspan
           y="236.6479"
           x="632.14288"
           id="tspan3881"
           sodipodi:role="line">Board</tspan></text>
      <path
         sodipodi:type="arc"
         style="fill:#990000;fill-opacity:1;stroke:none"
         id="path3768-9"
         sodipodi:cx="297.14285"
         sodipodi:cy="102.71932"
         sodipodi:rx="5.1785712"
         sodipodi:ry="5.1785712"
         d="m 302.32142,102.71932 c 0,2.86005 -2.31852,5.17857 -5.17857,5.17857 -2.86004,0 -5.17857,-2.31852 -5.17857,-5.17857 0,-2.860044 2.31853,-5.178569 5.17857,-5.178569 2.86005,0 5.17857,2.318525 5.17857,5.178569 z"
         transform="matrix(0.68965516,0,0,0.68965516,422.21676,147.23555)" />
      <path
         transform="matrix(0.68965516,0,0,0.68965516,402.48462,147.23556)"
         d="m 302.32142,102.71932 c 0,2.86005 -2.31852,5.17857 -5.17857,5.17857 -2.86004,0 -5.17857,-2.31852 -5.17857,-5.17857 0,-2.860044 2.31853,-5.178569 5.17857,-5.178569 2.86005,0 5.17857,2.318525 5.17857,5.178569 z"
         sodipodi:ry="5.1785712"
         sodipodi:rx="5.1785712"
         sodipodi:cy="102.71932"
         sodipodi:cx="297.14285"
         id="path3961-9"
         style="fill:#000000;fill-opacity:1;stroke:none"
         sodipodi:type="arc" />
      <g
         transform="translate(125.48907,1.4847455)"
         id="g4211">
        <g
           id="g4213"
           transform="translate(-2.2728433,-1.2626907)">
          <path
             style="fill:none;stroke:#000000;stroke-width:1px;stroke-linecap:butt;stroke-linejoin:miter;stroke-opacity:1"
             d="m 286.88332,137.92159 24.24366,0"
             id="path4215"
             inkscape:connector-curvature="0" />
          <path
             style="fill:none;stroke:#000000;stroke-width:1px;stroke-linecap:butt;stroke-linejoin:miter;stroke-opacity:1"
             d="m 290.54513,142.4571 16.92005,0"
             id="path4217"
             inkscape:connector-curvature="0" />
          <path
             sodipodi:nodetypes="cc"
             style="fill:none;stroke:#000000;stroke-width:1px;stroke-linecap:butt;stroke-linejoin:miter;stroke-opacity:1"
             d="m 293.95439,146.99265 10.10152,0"
             id="path4219"
             inkscape:connector-curvature="0" />
        </g>
        <path
           style="fill:none;stroke:#000000;stroke-width:2;stroke-linecap:butt;stroke-linejoin:miter;stroke-opacity:1;stroke-miterlimit:4;stroke-dasharray:none"
           d="m 295.9747,137.16398 0,-20.20306"
           id="path4221"
           inkscape:connector-curvature="0" />
      </g>
      <path
         style="fill:none;stroke:#000000;stroke-width:2;stroke-linecap:butt;stroke-linejoin:miter;stroke-opacity:1;stroke-miterlimit:4;stroke-dasharray:none"
         d="m 421.51786,116.55861 c 10,-1.78572 15.17857,-1.16072 15.17857,-1.16072"
         id="path4227"
         inkscape:connector-curvature="0" />
    </g>
    <g
       id="g4181"
       transform="translate(0,110)">
      <path
         style="fill:none;stroke:#000000;stroke-width:2;stroke-linecap:butt;stroke-linejoin:miter;stroke-opacity:1;stroke-miterlimit:4;stroke-dasharray:none"
         d="m 406.0648,493.24275 c 6.31345,-3.03046 15.40482,1.26269 15.40482,1.26269"
         id="path3949"
         inkscape:connector-curvature="0" />
      <g
         id="g3991"
         transform="translate(124.98985,379.81736)">
        <g
           id="g3993"
           transform="translate(-2.2728433,-1.2626907)">
          <path
             style="fill:none;stroke:#000000;stroke-width:1px;stroke-linecap:butt;stroke-linejoin:miter;stroke-opacity:1"
             d="m 286.88332,137.92159 24.24366,0"
             id="path3995"
             inkscape:connector-curvature="0" />
          <path
             style="fill:none;stroke:#000000;stroke-width:1px;stroke-linecap:butt;stroke-linejoin:miter;stroke-opacity:1"
             d="m 290.54513,142.4571 16.92005,0"
             id="path3997"
             inkscape:connector-curvature="0" />
          <path
             sodipodi:nodetypes="cc"
             style="fill:none;stroke:#000000;stroke-width:1px;stroke-linecap:butt;stroke-linejoin:miter;stroke-opacity:1"
             d="m 293.95439,146.99265 10.10152,0"
             id="path3999"
             inkscape:connector-curvature="0" />
        </g>
        <path
           style="fill:none;stroke:#000000;stroke-width:2;stroke-linecap:butt;stroke-linejoin:miter;stroke-opacity:1;stroke-miterlimit:4;stroke-dasharray:none"
           d="m 295.9747,137.16398 0,-20.20306"
           id="path4001"
           inkscape:connector-curvature="0" />
      </g>
      <path
         sodipodi:nodetypes="cccc"
         inkscape:connector-curvature="0"
         id="path3955"
         d="m 165.90102,467.48386 239.91124,0 0,26.26397 -239.91124,0"
         style="fill:none;stroke:#000000;stroke-width:2;stroke-linecap:round;stroke-miterlimit:4;stroke-opacity:1;stroke-dasharray:8, 4;stroke-dashoffset:0" />
      <path
         inkscape:connector-curvature="0"
         id="path3957"
         d="m 164.3858,480.61585 254.55844,0"
         style="fill:#990000;stroke:#990000;stroke-width:2;stroke-linecap:butt;stroke-linejoin:miter;stroke-miterlimit:4;stroke-opacity:1;stroke-dasharray:none" />
      <path
         transform="matrix(0.68965516,0,0,0.68965516,216.60961,409.77493)"
         d="m 302.32142,102.71932 c 0,2.86005 -2.31852,5.17857 -5.17857,5.17857 -2.86004,0 -5.17857,-2.31852 -5.17857,-5.17857 0,-2.860044 2.31853,-5.178569 5.17857,-5.178569 2.86005,0 5.17857,2.318525 5.17857,5.178569 z"
         sodipodi:ry="5.1785712"
         sodipodi:rx="5.1785712"
         sodipodi:cy="102.71932"
         sodipodi:cx="297.14285"
         id="path3959"
         style="fill:#990000;fill-opacity:1;stroke:none"
         sodipodi:type="arc" />
      <path
         sodipodi:type="arc"
         style="fill:#000000;fill-opacity:1;stroke:none"
         id="path3961"
         sodipodi:cx="297.14285"
         sodipodi:cy="102.71932"
         sodipodi:rx="5.1785712"
         sodipodi:ry="5.1785712"
         d="m 302.32142,102.71932 c 0,2.86005 -2.31852,5.17857 -5.17857,5.17857 -2.86004,0 -5.17857,-2.31852 -5.17857,-5.17857 0,-2.860044 2.31853,-5.178569 5.17857,-5.178569 2.86005,0 5.17857,2.318525 5.17857,5.178569 z"
         transform="matrix(0.68965516,0,0,0.68965516,216.60961,423.15946)" />
      <path
         sodipodi:nodetypes="cc"
         inkscape:connector-curvature="0"
         id="path3977"
         d="m 422.07622,481.12092 c 206.5506,0 205.46452,-21.31657 205.46452,115.54064"
         style="fill:none;stroke:#990000;stroke-width:2;stroke-linecap:butt;stroke-linejoin:miter;stroke-miterlimit:4;stroke-opacity:1;stroke-dasharray:none" />
      <text
         sodipodi:linespacing="125%"
         id="text3981"
         y="618.67841"
         x="631.42859"
         style="font-size:20px;font-style:normal;font-weight:normal;line-height:125%;letter-spacing:0px;word-spacing:0px;fill:#000000;fill-opacity:1;stroke:none;font-family:Sans"
         xml:space="preserve"><tspan
           y="618.67841"
           x="631.42859"
           id="tspan3983"
           sodipodi:role="line">Board</tspan></text>
      <text
         sodipodi:linespacing="125%"
         id="text3985"
         y="487.24985"
         x="42.142857"
         style="font-size:40px;font-style:normal;font-weight:normal;line-height:125%;letter-spacing:0px;word-spacing:0px;fill:#000000;fill-opacity:1;stroke:none;font-family:Sans"
         xml:space="preserve"><tspan
           style="font-size:20px"
           id="tspan3987"
           y="487.24985"
           x="42.142857"
           sodipodi:role="line">To Detector</tspan></text>
      <path
         transform="matrix(0.68965516,0,0,0.68965516,422.93104,524.98035)"
         d="m 302.32142,102.71932 c 0,2.86005 -2.31852,5.17857 -5.17857,5.17857 -2.86004,0 -5.17857,-2.31852 -5.17857,-5.17857 0,-2.860044 2.31853,-5.178569 5.17857,-5.178569 2.86005,0 5.17857,2.318525 5.17857,5.178569 z"
         sodipodi:ry="5.1785712"
         sodipodi:rx="5.1785712"
         sodipodi:cy="102.71932"
         sodipodi:cx="297.14285"
         id="path3989"
         style="fill:#990000;fill-opacity:1;stroke:none"
         sodipodi:type="arc" />
      <g
         id="g4090"
         transform="translate(316.12483,480.38754)">
        <g
           transform="translate(-2.2728433,-1.2626907)"
           id="g4092">
          <path
             inkscape:connector-curvature="0"
             id="path4094"
             d="m 286.88332,137.92159 24.24366,0"
             style="fill:none;stroke:#000000;stroke-width:1px;stroke-linecap:butt;stroke-linejoin:miter;stroke-opacity:1" />
          <path
             inkscape:connector-curvature="0"
             id="path4096"
             d="m 290.54513,142.4571 16.92005,0"
             style="fill:none;stroke:#000000;stroke-width:1px;stroke-linecap:butt;stroke-linejoin:miter;stroke-opacity:1" />
          <path
             inkscape:connector-curvature="0"
             id="path4098"
             d="m 293.95439,146.99265 10.10152,0"
             style="fill:none;stroke:#000000;stroke-width:1px;stroke-linecap:butt;stroke-linejoin:miter;stroke-opacity:1"
             sodipodi:nodetypes="cc" />
        </g>
        <path
           inkscape:connector-curvature="0"
           id="path4100"
           d="m 295.9747,137.16398 0,-20.20306"
           style="fill:none;stroke:#000000;stroke-width:2;stroke-linecap:butt;stroke-linejoin:miter;stroke-opacity:1;stroke-miterlimit:4;stroke-dasharray:none" />
      </g>
      <path
         transform="matrix(0.68965516,0,0,0.68965516,407.25231,525.1231)"
         d="m 302.32142,102.71932 c 0,2.86005 -2.31852,5.17857 -5.17857,5.17857 -2.86004,0 -5.17857,-2.31852 -5.17857,-5.17857 0,-2.860044 2.31853,-5.178569 5.17857,-5.178569 2.86005,0 5.17857,2.318525 5.17857,5.178569 z"
         sodipodi:ry="5.1785712"
         sodipodi:rx="5.1785712"
         sodipodi:cy="102.71932"
         sodipodi:cx="297.14285"
         id="path4102"
         style="fill:#000000;fill-opacity:1;stroke:none"
         sodipodi:type="arc" />
    </g>
    <text
       xml:space="preserve"
       style="font-size:40px;font-style:normal;font-weight:normal;line-height:125%;letter-spacing:0px;word-spacing:0px;fill:#000000;fill-opacity:1;stroke:none;font-family:Sans"
       x="24.695423"
       y="302.93359"
       id="text4207"
       sodipodi:linespacing="125%"><tspan
         sodipodi:role="line"
         id="tspan4209"
         x="24.695423"
         y="302.93359"
         style="font-size:32px">Isolated ground, shielded</tspan></text>
    <text
       sodipodi:linespacing="125%"
       id="text4223"
       y="67.18737"
       x="24.695423"
       style="font-size:40px;font-style:normal;font-weight:normal;line-height:125%;letter-spacing:0px;word-spacing:0px;fill:#000000;fill-opacity:1;stroke:none;font-family:Sans"
       xml:space="preserve"><tspan
         y="67.18737"
         x="24.695423"
         id="tspan4225"
         sodipodi:role="line"
         style="font-size:32px">Body ground, shielded</tspan></text>
    <text
       xml:space="preserve"
       style="font-size:32px;font-style:normal;font-weight:normal;line-height:125%;letter-spacing:0px;word-spacing:0px;fill:#000000;fill-opacity:1;stroke:none;font-family:Sans"
       x="24.695423"
       y="541.64789"
       id="text4229"
       sodipodi:linespacing="125%"><tspan
         sodipodi:role="line"
         id="tspan4231"
         x="24.695423"
         y="541.64789">Body ground, unshielded</tspan></text>
  </g>
</svg>
